<!--?xml version="1.0" encoding="utf-8"?-->
<svg xmlns="http://www.w3.org/2000/svg" xmlns:xlink="http://www.w3.org/1999/xlink">
    <symbol viewBox="0 0 67 56" id="icon-book" xmlns="http://www.w3.org/2000/svg">
        <title>Page 1</title>
        <path d="M20.255 7.297l-7.375 1.21 7.289 8.508-3.84 12.76.786 5.409-.995-.298-14.508-7.778L0 30.115l14.812 7.942 5.566 1.665-3.9 1.228-14.447 1.278.301 3.4 14.818-1.31 9.054-2.851 5.829 1.744 4.677 2.555-4.357.42-15.874 4.998-10.823.959.301 3.4 11.193-.991 15.885-5.003 9.012-.865 4.6 2.514 12.742 3.71.954-3.276-12.149-3.538 2.563-.246 14.335-4.353-1-3.263-13.832 4.235-7.497.72-9.251-5.058-.157-.085-1.351-.405 1.031-.324 17.722-1.701L67 32.677l-1-3.263-11.192 3.425-3.289-12.964-8.49-7.029V5.64L36.588.666l-8.2 1.376L18.314 0l1.94 7.297zm15.427-3.018l3.934 3.037v7.136l8.868 7.342L51.54 33.84l-1.28.392-17.907 1.72-6.175 1.944-5.458-1.634-.905-6.228 4.16-13.823-4.557-5.318 5.102-.838-1.494-5.617 5.302 1.074 7.354-1.233z"
              fill="#949DA8" fill-rule="evenodd"></path>
    </symbol>
    <symbol viewBox="0 0 94.4 94.4" id="icon-book-now" xmlns="http://www.w3.org/2000/svg">
        <title>BookNow_Octagon</title>
        <path stroke="#000" stroke-width="2" stroke-miterlimit="10" d="M66.3 1H28.1L1 28.1v38.2l27.1 27.1h38.2l27.1-27.1V28.1z"></path>
    </symbol>
    <symbol id="icon-book-now-hover" viewBox="0 0 65.9 65.9" xmlns="http://www.w3.org/2000/svg">
        <style>
            .est0 {
            fill: #fffaf5
            }
        </style>
        <title>BookNow_Octagon</title>
        <g id="eRound-02">
            <g id="eHomepage" transform="translate(-20 -12)">
                <g id="eHeader">
                    <g id="eBookNow_Octagon" transform="rotate(-10 86.005 -38.01)">
                        <g id="ePage-1" transform="translate(6 5)">
                            <path id="eFill-1" d="M33-.5L6.5 6.2-.4 32.8v.1l.1.4 6.8 26.3 26.4 6.7.1.1 26.6-6.8 6.8-26.3.1-.4-.1-.1-6.8-26.6L33.2-.5z"></path>
                            <g id="eGroup-16" transform="translate(14.173 20.5)">
                                <path id="eFill-2" class="est0" d="M4.1 10.5V5.7h.8c1.7 0 2.3.7 2.3 2.2v.2c0 1.6-.4 2.4-2.1 2.4h-1zm0-9.6h.6c1.3 0 2 .4 2 2v.2c0 1.5-.4 2-1.8 2H4L4.1.9zm5.8 7.2c0-2-1.8-2.6-3.3-2.8 1.2-.2 2.6-.7 2.6-2.2C9.2 1 7.1.4 4.9.4H.2V1h1.4v9.6H.1v.6h5.1c2.7-.2 4.7-1.1 4.7-3.1z"></path>
                                <path id="eFill-4" class="est0" d="M13.5 6.9c0-2.1.4-3.1 1.5-3.1s1.5 1 1.5 3.1v1c0 2-.4 2.9-1.5 2.9s-1.5-1-1.5-2.9v-1zm1.5 4.4c2 0 4-1.5 4-3.9s-1.9-4.2-4-4.2-4 1.7-4 4.1c0 2.5 2 4 4 4z"></path>
                                <path id="eFill-6" class="est0" d="M22.5 6.9c0-2.1.4-3.1 1.5-3.1s1.5 1 1.5 3.1v1c0 2-.4 2.9-1.5 2.9s-1.5-1-1.5-2.9v-1zm1.6 4.4c2 0 4-1.5 4-3.9s-1.9-4.2-4-4.2-4 1.7-4 4.1c0 2.5 1.9 4 4 4z"></path>
                                <path id="eFill-8" class="est0" d="M34.3 5.9l1.6-1.8h1v-.5H34v.5h1.1l-2.9 3.3V-.1h-3.4v.6h1.1v10H29v.5h4.1v-.5h-.9V8.2l.6-.7 2 3h-.9v.5h3.9v-.5h-.5z"></path>
                                <path id="eFill-10" class="est0" d="M10.2 15.8h1.5v6.4l-4.4-7H2.8v.6h1.4v9.6H2.8v.5h3.7v-.5H4.9V16l6.2 10h1.2V15.8h1.3v-.6h-3.4z"></path>
                                <path id="eFill-12" class="est0" d="M20 22.7c0 2-.4 2.9-1.5 2.9s-1.5-1-1.5-2.9v-1c0-2.1.4-3.1 1.5-3.1s1.5 1 1.5 3.1v1zm-1.5-4.6c-2.1 0-4 1.7-4 4.1 0 2.4 1.9 3.9 4 3.9 2 0 4-1.5 4-3.9 0-2.3-1.9-4.1-4-4.1z"></path>
                                <path id="eFill-14" class="est0" d="M32.8 19h1.1l-1.7 4.8h-.1L30.4 19h1.1v-.6h-4.1v.6h.7l.7 1.8-1 3h-.1L25.8 19h.9v-.6H23v.6h.6l2.7 7h1.3l1.5-4.3 1.6 4.3h1.4l2.5-7h.6v-.6h-2.4z"></path>
                            </g>
                        </g>
                    </g>
                </g>
            </g>
        </g>
    </symbol>
    <symbol viewBox="0 0 69.2 121.1" id="left-arrow" xmlns="http://www.w3.org/2000/svg">
        <path d="M63.2 0l6 6.2-56.8 54.2L69.2 115l-6 6.2L0 60.4z"></path>
    </symbol>
    <symbol viewBox="0 0 69.2 121.1" id="right-arrow" xmlns="http://www.w3.org/2000/svg">
        <path d="M6 121.2L0 115l56.7-54.2L0 6.2 6 0l63.2 60.8z"></path>
    </symbol>
</svg>